<svg version="1.1" xmlns="http://www.w3.org/2000/svg" xmlns:xlink="http://www.w3.org/1999/xlink" width="84.9105" height="34.72445"><g transform="translate(-192.08333,-194.95833)"><g data-paper-data="{&quot;isPaintingLayer&quot;:true}" fill="none" fill-rule="evenodd" stroke="none" stroke-width="1" stroke-linecap="butt" stroke-linejoin="miter" stroke-miterlimit="10" stroke-dasharray="" stroke-dashoffset="0" font-family="none" font-weight="none" font-size="none" text-anchor="none" style="mix-blend-mode: normal"><path d="M192.17283,197.69452c0,-1.35901 1.1,-2.46063 2.457,-2.46063h6.353c0.652,0 1.277,0.25938 1.738,0.72107l3.474,3.47914c0.461,0.46168 1.086,0.72107 1.738,0.72107h7.792c0.652,0 1.277,-0.25938 1.738,-0.72107l3.474,-3.47914c0.461,-0.46168 1.086,-0.72107 1.738,-0.72107h51.862c1.357,0 2.457,1.10163 2.457,2.46063v24.60635c0,1.35901 -1.1,2.46063 -2.457,2.46063h-51.862c-0.652,0 -1.277,0.25938 -1.738,0.72107l-3.474,3.47914c-0.461,0.46168 -1.086,0.72107 -1.738,0.72107h-7.792c-0.652,0 -1.277,-0.25938 -1.738,-0.72107l-3.474,-3.47914c-0.461,-0.46168 -1.086,-0.72107 -1.738,-0.72107h-6.353c-1.357,0 -2.457,-1.10163 -2.457,-2.46063z" data-paper-data="{&quot;origPos&quot;:null}" id="path-1 1" fill-opacity="0.2" fill="#ffffff" stroke="none"/><path d="M194.54033,195.45833h6.353c0.51915,0 1.01689,0.20652 1.38419,0.57436l3.474,3.47914c0.55481,0.55563 1.30711,0.86777 2.09181,0.86777h7.792c0.78471,0 1.537,-0.31214 2.09181,-0.86777l3.474,-3.47914c0.36729,-0.36783 0.86504,-0.57436 1.38419,-0.57436h51.862c1.08069,0 1.957,0.8776 1.957,1.96063v24.60635c0,1.08303 -0.87631,1.96063 -1.957,1.96063h-51.862c-0.78471,0 -1.537,0.31214 -2.09181,0.86777l-3.474,3.47914c-0.36729,0.36783 -0.86504,0.57436 -1.38419,0.57436h-7.792c-0.51915,0 -1.01689,-0.20652 -1.38419,-0.57436l-3.474,-3.47914c-0.55481,-0.55563 -1.30711,-0.86777 -2.09181,-0.86777h-6.353c-1.08069,0 -1.957,-0.8776 -1.957,-1.96063v-24.60635c0,-1.08303 0.87631,-1.96063 1.957,-1.96063z" fill="none" stroke-opacity="0.1" stroke="#ffffff"/></g></g></svg>